<!-- Save this as /vite.svg -->
<svg xmlns="http://www.w3.org/2000/svg" viewBox="0 0 64 64" width="64" height="64" role="img" aria-label="Refaero icon">
  <!-- Primary swoosh -->
  <path fill="#0B66C2" d="M6 38c6-14 22-22 38-18 6 1 12 4 14 6-4-6-14-10-24-9C20 19 10 28 6 38z"></path>
  <!-- Mid swoosh -->
  <path fill="#0A57A8" d="M8 44c5-10 18-16 33-14 5 1 10 3 12 4-3-4-10-7-18-6C22 30 12 36 8 44z" opacity="0.95"></path>
  <!-- Lower subtle swoosh -->
  <path fill="#084A86" d="M10 50c4-6 15-10 28-9 4 0 8 1 10 2-2-3-8-5-14-4C26 39 16 43 10 50z" opacity="0.9"></path>
</svg>
